<?xml version="1.0" standalone="no"?>
<!DOCTYPE svg PUBLIC "-//W3C//DTD SVG 20010904//EN"
 "http://www.w3.org/TR/2001/REC-SVG-20010904/DTD/svg10.dtd">
<svg version="1.0" xmlns="http://www.w3.org/2000/svg"
 width="204.000000pt" height="192.000000pt" viewBox="0 0 204.000000 192.000000"
 preserveAspectRatio="xMidYMid meet">

<g transform="translate(0.000000,192.000000) scale(0.100000,-0.100000)"
fill="#000000" stroke="none">
<path d="M70 900 c0 -287 3 -440 10 -440 7 0 10 153 10 440 0 287 -3 440 -10
440 -7 0 -10 -153 -10 -440z"/>
<path d="M120 900 c0 -287 3 -440 10 -440 7 0 10 153 10 440 0 287 -3 440 -10
440 -7 0 -10 -153 -10 -440z"/>
<path d="M170 900 c0 -287 3 -440 10 -440 7 0 10 153 10 440 0 287 -3 440 -10
440 -7 0 -10 -153 -10 -440z"/>
<path d="M250 900 c0 -384 2 -440 15 -440 13 0 15 56 15 440 0 384 -2 440 -15
440 -13 0 -15 -56 -15 -440z"/>
<path d="M330 900 c0 -287 3 -440 10 -440 7 0 10 153 10 440 0 287 -3 440 -10
440 -7 0 -10 -153 -10 -440z"/>
<path d="M380 899 c0 -414 1 -440 18 -437 16 3 17 33 19 441 3 430 3 437 -17
437 -20 0 -20 -7 -20 -441z"/>
<path d="M450 900 c0 -433 0 -440 20 -440 20 0 20 7 20 440 0 433 0 440 -20
440 -20 0 -20 -7 -20 -440z"/>
<path d="M510 906 c0 -277 4 -437 10 -441 7 -4 10 145 10 434 0 283 -4 441
-10 441 -6 0 -10 -156 -10 -434z"/>
<path d="M585 900 c0 -245 1 -345 2 -223 2 123 2 323 0 445 -1 123 -2 23 -2
-222z"/>
<path d="M647 1222 c1 -64 2 -262 2 -439 1 -208 5 -323 11 -323 7 0 10 153 10
440 0 345 -3 440 -12 440 -10 0 -13 -29 -11 -118z"/>
<path d="M710 900 c0 -384 2 -440 15 -440 13 0 15 56 15 440 0 384 -2 440 -15
440 -13 0 -15 -56 -15 -440z"/>
<path d="M790 900 c0 -287 3 -440 10 -440 7 0 10 153 10 440 0 287 -3 440 -10
440 -7 0 -10 -153 -10 -440z"/>
<path d="M840 900 c0 -382 2 -440 15 -440 13 0 15 59 17 440 3 413 2 440 -14
440 -17 0 -18 -28 -18 -440z"/>
<path d="M920 900 c0 -287 3 -440 10 -440 7 0 10 153 10 440 0 287 -3 440 -10
440 -7 0 -10 -153 -10 -440z"/>
<path d="M970 900 c0 -287 3 -440 10 -440 7 0 10 153 10 440 0 287 -3 440 -10
440 -7 0 -10 -153 -10 -440z"/>
<path d="M1045 900 c0 -245 1 -345 2 -223 2 123 2 323 0 445 -1 123 -2 23 -2
-222z"/>
<path d="M1100 900 c0 -433 0 -440 20 -440 20 0 20 7 20 440 0 433 0 440 -20
440 -20 0 -20 -7 -20 -440z"/>
<path d="M1170 900 c0 -287 3 -440 10 -440 7 0 10 153 10 440 0 287 -3 440
-10 440 -7 0 -10 -153 -10 -440z"/>
<path d="M1230 900 l1 -440 24 0 25 0 0 440 0 440 -25 0 -25 0 0 -440z"/>
<path d="M1325 900 c0 -245 1 -345 2 -223 2 123 2 323 0 445 -1 123 -2 23 -2
-222z"/>
<path d="M1370 899 c0 -348 3 -440 13 -437 9 4 12 102 14 441 2 377 0 437 -12
437 -13 0 -15 -61 -15 -441z"/>
<path d="M1420 900 c0 -433 0 -440 20 -440 20 0 20 7 20 440 0 433 0 440 -20
440 -20 0 -20 -7 -20 -440z"/>
<path d="M1500 900 c0 -287 3 -440 10 -440 7 0 10 153 10 440 0 287 -3 440
-10 440 -7 0 -10 -153 -10 -440z"/>
<path d="M1560 900 c0 -384 2 -440 15 -440 13 0 15 56 15 440 0 384 -2 440
-15 440 -13 0 -15 -56 -15 -440z"/>
<path d="M1630 900 c0 -287 3 -440 10 -440 7 0 10 153 10 440 0 287 -3 440
-10 440 -7 0 -10 -153 -10 -440z"/>
<path d="M1690 900 c0 -433 0 -440 20 -440 20 0 20 7 20 440 0 433 0 440 -20
440 -20 0 -20 -7 -20 -440z"/>
<path d="M1785 900 c0 -245 1 -345 2 -223 2 123 2 323 0 445 -1 123 -2 23 -2
-222z"/>
<path d="M1830 899 c0 -348 3 -440 13 -437 9 4 12 102 14 441 2 375 0 437 -13
437 -12 0 -14 -64 -14 -441z"/>
<path d="M1890 900 c0 -287 3 -440 10 -440 7 0 10 153 10 440 0 287 -3 440
-10 440 -7 0 -10 -153 -10 -440z"/>
<path d="M1950 900 c0 -281 4 -440 10 -440 6 0 10 159 10 440 0 279 -4 440
-10 440 -6 0 -10 -161 -10 -440z"/>
</g>
</svg>
